<svg width="20" height="20" viewBox="0 0 20 20" fill="none" xmlns="http://www.w3.org/2000/svg">
<path d="M19.6 10.2222C19.6 9.4 19.5333 8.8 19.3889 8.17779H10V11.8889H15.5111C15.4 12.8111 14.8 14.2 13.4666 15.1333L13.448 15.2575L16.4165 17.5573L16.6222 17.5778C18.5111 15.8333 19.6 13.2666 19.6 10.2222Z" fill="#4285F4"/>
<path d="M10 20C12.7 20 14.9666 19.1111 16.6222 17.5778L13.4667 15.1333C12.6222 15.7222 11.4889 16.1333 10 16.1333C7.35558 16.1333 5.11115 14.3889 4.31108 11.9778L4.1938 11.9877L1.10702 14.3766L1.06665 14.4889C2.71108 17.7555 6.08886 20 10 20Z" fill="#34A853"/>
<path d="M4.31107 11.9778C4.09996 11.3556 3.97779 10.6889 3.97779 10C3.97779 9.31107 4.09996 8.64442 4.29996 8.02221L4.29437 7.88969L1.1689 5.46243L1.06664 5.51107C0.388893 6.86664 0 8.38889 0 10C0 11.6111 0.388893 13.1333 1.06664 14.4889L4.31107 11.9778Z" fill="#FBBC05"/>
<path d="M10 3.86664C11.8778 3.86664 13.1444 4.67775 13.8667 5.35557L16.6889 2.6C14.9556 0.988893 12.7 0 10 0C6.08886 0 2.71108 2.24443 1.06665 5.51107L4.29997 8.02221C5.11115 5.61111 7.35558 3.86664 10 3.86664Z" fill="#EB4335"/>
</svg>
