<svg width="120" height="40" viewBox="0 0 120 40" fill="none" xmlns="http://www.w3.org/2000/svg">
<rect width="120" height="40" fill="white"/>
<path d="M29.319 25.471C28.5918 25.471 27.9558 25.3862 27.4109 25.216C26.8653 25.0465 26.4024 24.8121 26.0213 24.5144C25.6403 24.2167 25.3361 23.8606 25.1096 23.4468C24.8831 23.0329 24.7286 22.5785 24.6445 22.0835H26.7093C26.7806 22.3876 26.8853 22.6704 27.022 22.9325C27.1588 23.1946 27.3333 23.4225 27.5448 23.6163C27.7563 23.81 28.0063 23.9617 28.2955 24.0721C28.5847 24.1825 28.9194 24.2374 29.3012 24.2374C29.5512 24.2374 29.8005 24.2103 30.0476 24.1569C30.2948 24.1035 30.517 24.0158 30.7136 23.8933C30.9102 23.7715 31.0683 23.6134 31.1872 23.4197C31.3062 23.226 31.366 22.9859 31.366 22.7003C31.366 22.3428 31.2734 22.0244 31.0889 21.7438C30.9045 21.4639 30.6602 21.2089 30.356 20.9795C30.0519 20.7502 29.7065 20.5372 29.319 20.3406C28.9316 20.1441 28.5355 19.9461 28.1303 19.7459C27.725 19.5465 27.329 19.3364 26.9415 19.1156C26.5541 18.8955 26.2086 18.6498 25.9045 18.3784C25.6004 18.107 25.3561 17.8008 25.1716 17.4575C24.9871 17.1149 24.8945 16.7231 24.8945 16.2823C24.8945 15.7994 24.9999 15.3542 25.2122 14.9461C25.4237 14.538 25.7293 14.1833 26.1281 13.8827C26.527 13.5821 27.0156 13.3464 27.5939 13.1769C28.1716 13.0073 28.8304 12.9219 29.569 12.9219C30.1766 12.9219 30.7278 13.0052 31.2228 13.1719C31.7171 13.3385 32.1538 13.5693 32.532 13.8649C32.9102 14.1598 33.2278 14.5052 33.4835 14.9019C33.7399 15.2979 33.9365 15.7224 34.0733 16.1754H32.205C32.0975 15.8891 31.9728 15.6156 31.8297 15.3535C31.6865 15.0914 31.5106 14.862 31.3026 14.6655C31.0939 14.4689 30.8411 14.3122 30.5427 14.1961C30.2449 14.08 29.8902 14.0216 29.4793 14.0216C29.0918 14.0216 28.7656 14.0722 28.5006 14.1733C28.2357 14.2744 28.0227 14.4041 27.8618 14.5622C27.7008 14.7203 27.5847 14.8962 27.5135 15.0892C27.4422 15.283 27.4059 15.4724 27.4059 15.6569C27.4059 15.9788 27.5014 16.2709 27.6922 16.533C27.8831 16.7951 28.1345 17.0394 28.4472 17.2659C28.7599 17.4924 29.116 17.7082 29.5156 17.914C29.9145 18.1199 30.3211 18.3264 30.7357 18.5351C31.1495 18.7438 31.5562 18.9624 31.9558 19.1918C32.3546 19.4211 32.7107 19.6733 33.0241 19.9468C33.3368 20.221 33.5889 20.5251 33.7791 20.8585C33.97 21.1925 34.0654 21.5678 34.0654 21.9845C34.0654 22.4795 33.9643 22.9375 33.7613 23.3606C33.5583 23.7837 33.2577 24.1519 32.8589 24.4646C32.4593 24.7772 31.9636 25.023 31.371 25.2017C30.7777 25.3805 30.0947 25.4695 29.3197 25.4695L29.319 25.471Z" fill="#E41E28"/>
<path d="M35.6133 17.2831V16.6307L37.0883 16.1392V14.2802L39.0278 13.2617H39.859V16.1399H42.1026V17.2838H39.859V23.1741C39.859 23.3585 39.9067 23.5195 40.0022 23.657C40.0976 23.7944 40.2222 23.8628 40.3775 23.8628C40.4729 23.8628 40.5784 23.83 40.6952 23.7645C40.8113 23.699 40.9217 23.6235 41.0257 23.5366C41.1296 23.4504 41.2222 23.3621 41.3027 23.2731C41.3832 23.1833 41.4416 23.115 41.4772 23.0672L42.4245 23.8179C42.2692 24.0565 42.0997 24.2781 41.9152 24.4839C41.7308 24.689 41.5192 24.8671 41.2806 25.0152C41.042 25.1641 40.7678 25.2823 40.4587 25.3685C40.1489 25.4547 39.7913 25.4981 39.3861 25.4981C38.9808 25.4981 38.6624 25.4426 38.3761 25.3329C38.0898 25.2232 37.8519 25.0694 37.661 24.8728C37.4701 24.6762 37.3269 24.4412 37.2322 24.1669C37.1368 23.8927 37.0891 23.5893 37.0891 23.2553V17.2845H35.614L35.6133 17.2831Z" fill="#E41E28"/>
<path d="M43.1296 18.4699C43.2251 18.0888 43.3917 17.7412 43.6303 17.4286C43.8682 17.1159 44.1652 16.8509 44.5199 16.633C44.8746 16.4157 45.2799 16.2469 45.7358 16.128C46.1916 16.009 46.6845 15.9492 47.2151 15.9492C47.8704 15.9492 48.4366 16.009 48.9131 16.128C49.3896 16.2469 49.7813 16.4157 50.0883 16.633C50.3953 16.8502 50.6218 17.1123 50.7678 17.4193C50.9138 17.7263 50.9872 18.0703 50.9872 18.4513V23.6892C50.9872 24.0646 51.1033 24.3837 51.3354 24.6458C51.5676 24.9079 51.8953 25.1251 52.3183 25.2982H49.0292C48.9337 25.2982 48.8419 25.2711 48.7521 25.2177C48.6631 25.1643 48.5826 25.0945 48.5107 25.0076C48.4394 24.9214 48.3768 24.8274 48.3226 24.7262C48.2692 24.6251 48.23 24.5268 48.2065 24.4314C48.0399 24.5866 47.8818 24.7277 47.7329 24.8559C47.584 24.9841 47.4202 25.0923 47.2414 25.1821C47.0627 25.2711 46.8632 25.3416 46.6424 25.3922C46.4216 25.4428 46.1567 25.4684 45.8469 25.4684C45.4238 25.4684 45.0442 25.4086 44.7073 25.2896C44.3704 25.1707 44.0848 25.0054 43.849 24.7939C43.6133 24.5824 43.4338 24.3324 43.3084 24.0432C43.1831 23.754 43.1211 23.4399 43.1211 23.1002C43.1211 22.576 43.2671 22.1258 43.5591 21.7505C43.8511 21.3751 44.2372 21.0475 44.7165 20.7676C45.1959 20.4877 45.74 20.2434 46.3476 20.0347C46.9551 19.826 47.5748 19.6266 48.2065 19.4357V18.5418C48.2065 18.2498 48.1766 18.0012 48.1175 17.7954C48.0577 17.5902 47.9744 17.4229 47.8675 17.2947C47.76 17.1665 47.6303 17.0746 47.4786 17.0176C47.3269 16.9613 47.1581 16.9328 46.9736 16.9328C46.7528 16.9328 46.5563 16.9749 46.3839 17.0582C46.2108 17.1415 46.062 17.2548 45.9373 17.3979C45.8127 17.5411 45.7108 17.7049 45.6332 17.8894C45.5556 18.0739 45.4993 18.2676 45.4637 18.4706H43.1311L43.1296 18.4699ZM48.2065 20.5788C47.9387 20.6921 47.6674 20.8288 47.3932 20.9898C47.1189 21.1508 46.8732 21.331 46.656 21.5304C46.4387 21.7298 46.26 21.9506 46.1197 22.1921C45.9793 22.4335 45.9095 22.6914 45.9095 22.9656C45.9095 23.2697 45.9886 23.5076 46.1467 23.6807C46.3048 23.8537 46.5178 23.9399 46.7856 23.9399C47.0121 23.9399 47.2357 23.873 47.4558 23.7391C47.6759 23.6052 47.9266 23.4307 48.2065 23.2163V20.5795V20.5788Z" fill="#E41E28"/>
<path d="M53.5956 27.4554C53.6548 27.4853 53.7338 27.5238 53.8328 27.5715C53.9311 27.6192 54.0387 27.6641 54.1548 27.7054C54.2709 27.7467 54.3948 27.783 54.5258 27.8129C54.6569 27.8429 54.7879 27.8578 54.919 27.8578C55.0265 27.8578 55.1334 27.7951 55.2409 27.6705C55.3485 27.5451 55.4496 27.3991 55.5451 27.2325C55.6405 27.0658 55.7253 26.8984 55.8001 26.7317C55.8741 26.5651 55.9297 26.4426 55.9653 26.3657L56.7609 24.6406L52.3008 16.1406H55.2324L58.1191 21.6192L60.6754 16.1406H62.6326L57.5735 27.1612C57.4069 27.5188 57.1953 27.8436 56.9389 28.1356C56.6825 28.4276 56.4026 28.6762 56.0992 28.882C55.7951 29.0872 55.4781 29.2467 55.1469 29.3599C54.8164 29.4732 54.4902 29.5295 54.1683 29.5295C53.8998 29.5295 53.6526 29.4981 53.4261 29.4354C53.1996 29.3728 53.0031 29.2787 52.8364 29.1541L53.5964 27.4561L53.5956 27.4554Z" fill="#E41E28"/>
<path d="M71.7417 19.3853H76.7737V24.0505C76.3862 24.2592 75.9988 24.4501 75.612 24.6224C75.2246 24.7955 74.8107 24.9444 74.3699 25.0697C73.929 25.1951 73.4475 25.2934 72.9261 25.3646C72.4048 25.4358 71.8193 25.4722 71.1697 25.4722C70.127 25.4722 69.1662 25.3261 68.2873 25.0341C67.4084 24.7421 66.6484 24.3311 66.0081 23.8005C65.3678 23.2706 64.8685 22.6296 64.5109 21.8789C64.1534 21.1282 63.9746 20.297 63.9746 19.3853C63.9746 18.4202 64.1534 17.5384 64.5109 16.74C64.8685 15.9416 65.3656 15.2564 66.0038 14.6845C66.6413 14.1125 67.3998 13.6688 68.2787 13.3526C69.1576 13.037 70.1185 12.8789 71.1612 12.8789C71.7751 12.8789 72.3663 12.9622 72.9354 13.1289C73.5045 13.2956 74.0301 13.5164 74.513 13.7906C74.9959 14.0648 75.4304 14.3789 75.8179 14.7336C76.2053 15.0883 76.5237 15.453 76.7744 15.8283L75.5501 16.9458C75.2937 16.5826 75.0258 16.2457 74.7459 15.9359C74.466 15.626 74.1676 15.3561 73.8521 15.1268C73.5358 14.8974 73.1982 14.7172 72.8378 14.5862C72.4774 14.4551 72.0914 14.3896 71.6804 14.3896C71.0551 14.3896 70.4724 14.5028 69.9333 14.7293C69.3941 14.9558 68.9262 15.282 68.5301 15.708C68.1341 16.1339 67.8243 16.6567 67.6007 17.2763C67.377 17.896 67.2652 18.599 67.2652 19.386C67.2652 20.173 67.3841 20.8668 67.6227 21.4686C67.8606 22.0705 68.1861 22.5769 68.5971 22.9878C69.0081 23.3988 69.4895 23.7101 70.0408 23.9216C70.5921 24.1331 71.1833 24.2393 71.815 24.2393C72.1904 24.2393 72.5451 24.1901 72.8784 24.0918C73.2117 23.9935 73.5187 23.8432 73.7986 23.6403V20.4223H71.7431V19.3853H71.7417Z" fill="#E41E28"/>
<path d="M83.6632 25.4989C83.0136 25.4989 82.4032 25.3786 81.8306 25.1371C81.2579 24.8957 80.7608 24.5709 80.3377 24.1628C79.9146 23.7547 79.5792 23.281 79.332 22.7418C79.0849 22.2027 78.9609 21.6322 78.9609 21.0303C78.9609 20.3095 79.0742 19.6407 79.3007 19.0239C79.5272 18.4071 79.8491 17.8722 80.2658 17.4192C80.6824 16.9662 81.1817 16.6137 81.7629 16.3601C82.3441 16.1072 82.9915 15.9805 83.7066 15.9805C84.3441 15.9805 84.9282 16.0816 85.4588 16.2846C85.9887 16.4876 86.4431 16.7647 86.822 17.1158C87.2002 17.4676 87.4937 17.8815 87.7024 18.358C87.911 18.8344 88.015 19.3444 88.015 19.8864H81.6782C81.7017 20.3928 81.7779 20.8757 81.9061 21.3344C82.0343 21.7931 82.2052 22.197 82.4203 22.5453C82.6347 22.8935 82.8861 23.1713 83.1753 23.3764C83.4645 23.5816 83.7843 23.6849 84.1361 23.6849C84.4403 23.6849 84.7394 23.6329 85.0343 23.5282C85.3291 23.4242 85.6019 23.281 85.8519 23.0994C86.1019 22.9178 86.3199 22.7062 86.5044 22.4648C86.6888 22.2233 86.8227 21.9626 86.9068 21.6827L88.3192 21.9064C88.176 22.4014 87.9481 22.8658 87.6354 23.301C87.3227 23.7361 86.9559 24.1172 86.5364 24.4448C86.1162 24.7725 85.6589 25.0303 85.1646 25.2183C84.6696 25.4056 84.1696 25.4997 83.6632 25.4997V25.4989ZM84.8341 18.9384C84.8106 18.6706 84.7522 18.4242 84.6596 18.2013C84.567 17.9776 84.4495 17.7853 84.3064 17.625C84.1632 17.4641 83.9965 17.3409 83.8056 17.254C83.6148 17.1678 83.4096 17.1243 83.1888 17.1243C83.0158 17.1243 82.8463 17.1678 82.6796 17.254C82.5129 17.3401 82.3619 17.4627 82.228 17.6208C82.0941 17.7789 81.9809 17.9691 81.8883 18.1927C81.7957 18.4164 81.7344 18.6649 81.7052 18.9391H84.8334L84.8341 18.9384Z" fill="#E41E28"/>
<path d="M95.9794 19.0503C95.9794 18.8181 95.9538 18.6109 95.9032 18.4292C95.8526 18.2476 95.7843 18.0959 95.6974 17.9734C95.6112 17.8516 95.5129 17.759 95.4025 17.6963C95.2921 17.6337 95.1774 17.6023 95.0585 17.6023C94.9395 17.6023 94.8021 17.6265 94.6475 17.6735C94.4922 17.7213 94.3299 17.7882 94.1603 17.8744C93.9908 17.9606 93.8163 18.0667 93.6376 18.1914C93.4588 18.316 93.2893 18.4563 93.1283 18.6116V25.2974H90.3398V16.9763L92.2971 15.957H93.1283V16.8865C93.5571 16.5767 94.0158 16.3488 94.5051 16.2028C94.9937 16.0567 95.4794 15.9841 95.9616 15.9841C96.337 15.9841 96.6931 16.0575 97.03 16.2028C97.3669 16.3488 97.6617 16.5468 97.9146 16.7968C98.1674 17.0468 98.369 17.3409 98.5179 17.6771C98.6667 18.014 98.7415 18.373 98.7415 18.754V25.2967H95.9794V19.0489V19.0503Z" fill="#E41E28"/>
<path d="M106.001 21.5063L108.401 25.2897H111.322L108.042 20.168C107.36 20.5768 106.677 21.0212 106 21.5063H106.001Z" fill="#112372"/>
<path d="M104.94 20.1494C105.605 19.7612 106.325 19.3759 107.105 18.9962L103.813 13.8773C103.704 13.7128 103.463 13.7128 103.357 13.8773L102.325 15.4656C102.21 15.6423 102.21 15.8687 102.322 16.0454L104.94 20.1494Z" fill="#112372"/>
<path d="M99.0566 25.2973H101.352C107.759 17.7781 117.752 15.954 119 15.7539C106.582 17.657 100.845 23.2703 99.0566 25.2973Z" fill="#112372"/>
<path d="M11.3315 16.582H9.83008V18.0842H11.3315V16.582Z" fill="#2997FF"/>
<path d="M11.3315 18.7344H9.83008V20.2358H11.3315V18.7344Z" fill="#F34870"/>
<path d="M11.6837 9.15526V7C6.62462 7 2.52279 11.1018 2.52279 16.1609C2.52279 17.302 2.99501 18.7336 3.40953 19.7913L1 22.3276C6.42519 18.2435 4.21366 19.9209 11.6581 14.2322C11.6666 14.2386 11.6745 14.2443 11.6837 14.2507V10.9879L11.6581 10.9622L4.96722 18.1517C3.63745 13.6588 7.00923 9.15597 11.6837 9.15597V9.15526Z" fill="#E41E28"/>
<path d="M13.5366 16.582H12.0352V18.0842H13.5366V16.582Z" fill="#A972FF"/>
<path d="M13.5366 18.7344H12.0352V20.2358H13.5366V18.7344Z" fill="#EB7500"/>
<path d="M17.7138 19.7227C16.3577 22.0132 14.0208 23.1614 11.6832 23.1614C9.34562 23.1614 7.10347 22.061 5.73026 19.8516L3.99023 21.1614C6.57854 26.8772 11.6832 33.9989 11.6832 33.9989C11.6882 33.9925 16.8784 26.7497 19.4432 21.0125L17.7138 19.7234V19.7227Z" fill="#112372"/>
<path d="M20.0169 19.6403C20.4108 18.6153 20.8452 17.2578 20.8452 16.1609C20.8452 11.1018 16.7434 7 11.6843 7V9.15526C16.289 9.15526 19.6515 13.5313 18.4464 17.99L15.9086 15.324V12.4644H14.4265V13.7671L11.6836 10.9886V14.2514C19.2427 19.7635 17.0126 18.1189 22.3673 22.1118L20.0162 19.641L20.0169 19.6403Z" fill="#E41E28"/>
</svg>
