<svg width="110" height="35" viewBox="0 0 110 35" fill="none" xmlns="http://www.w3.org/2000/svg">
<rect width="110" height="35" fill="white"/>
<path d="M26.919 21.9081C26.2534 21.9081 25.6713 21.8305 25.1726 21.6747C24.6732 21.5196 24.2495 21.3051 23.9007 21.0326C23.552 20.7601 23.2736 20.4341 23.0663 20.0553C22.859 19.6766 22.7175 19.2606 22.6406 18.8076H24.5305C24.5956 19.0859 24.6915 19.3447 24.8166 19.5847C24.9418 19.8246 25.1015 20.0332 25.2951 20.2105C25.4887 20.3878 25.7175 20.5267 25.9822 20.6277C26.2469 20.7288 26.5533 20.779 26.9027 20.779C27.1315 20.779 27.3597 20.7542 27.5859 20.7053C27.8121 20.6564 28.0155 20.5762 28.1954 20.4641C28.3753 20.3526 28.52 20.2079 28.6289 20.0306C28.7378 19.8532 28.7925 19.6335 28.7925 19.3721C28.7925 19.0449 28.7078 18.7535 28.5389 18.4966C28.3701 18.2404 28.1465 18.007 27.8681 17.7971C27.5898 17.5872 27.2736 17.3922 26.919 17.2123C26.5644 17.0324 26.2019 16.8511 25.831 16.668C25.46 16.4854 25.0976 16.2931 24.743 16.091C24.3883 15.8896 24.0722 15.6646 23.7938 15.4163C23.5155 15.1679 23.2919 14.8875 23.123 14.5733C22.9542 14.2597 22.8694 13.9012 22.8694 13.4976C22.8694 13.0556 22.9659 12.6482 23.1602 12.2746C23.3538 11.9011 23.6335 11.5764 23.9985 11.3013C24.3636 11.0262 24.8108 10.8104 25.3401 10.6553C25.8688 10.5001 26.4718 10.4219 27.1478 10.4219C27.7039 10.4219 28.2084 10.4982 28.6615 10.6507C29.1139 10.8033 29.5135 11.0145 29.8597 11.285C30.2058 11.5549 30.4966 11.8711 30.7306 12.2342C30.9653 12.5967 31.1452 12.9852 31.2703 13.3999H29.5604C29.462 13.1378 29.3479 12.8874 29.2169 12.6475C29.0859 12.4076 28.9248 12.1977 28.7345 12.0178C28.5435 11.8379 28.3121 11.6944 28.0389 11.5882C27.7664 11.4819 27.4418 11.4284 27.0657 11.4284C26.711 11.4284 26.4125 11.4747 26.17 11.5673C25.9275 11.6599 25.7325 11.7785 25.5852 11.9233C25.4379 12.068 25.3316 12.229 25.2664 12.4057C25.2012 12.583 25.168 12.7564 25.168 12.9253C25.168 13.2199 25.2554 13.4872 25.4301 13.7271C25.6048 13.967 25.8349 14.1906 26.1211 14.398C26.4072 14.6053 26.7332 14.8028 27.0989 14.9912C27.464 15.1796 27.8362 15.3687 28.2156 15.5597C28.5943 15.7507 28.9666 15.9508 29.3323 16.1608C29.6973 16.3707 30.0233 16.6015 30.3101 16.8518C30.5963 17.1028 30.8271 17.3812 31.0011 17.6863C31.1758 17.992 31.2632 18.3356 31.2632 18.7169C31.2632 19.17 31.1706 19.5892 30.9848 19.9765C30.799 20.3637 30.5239 20.7007 30.1589 20.9869C29.7932 21.2731 29.3394 21.498 28.7971 21.6617C28.2541 21.8253 27.6289 21.9068 26.9196 21.9068L26.919 21.9081Z" fill="#E41E28"/>
<path d="M32.6797 14.4112V13.8141L34.0298 13.3642V11.6627L35.8048 10.7305H36.5656V13.3649H38.6191V14.4119H36.5656V19.8033C36.5656 19.9721 36.6093 20.1195 36.6966 20.2453C36.784 20.3711 36.8981 20.4337 37.0402 20.4337C37.1275 20.4337 37.224 20.4037 37.3309 20.3437C37.4372 20.2837 37.5382 20.2146 37.6334 20.1351C37.7286 20.0562 37.8133 19.9754 37.887 19.8939C37.9606 19.8118 38.0141 19.7492 38.0467 19.7055L38.9137 20.3926C38.7716 20.611 38.6165 20.8138 38.4476 21.0022C38.2788 21.1899 38.0852 21.3529 37.8668 21.4885C37.6484 21.6248 37.3974 21.733 37.1145 21.8119C36.8309 21.8907 36.5037 21.9305 36.1327 21.9305C35.7618 21.9305 35.4704 21.8797 35.2084 21.7793C34.9463 21.6789 34.7286 21.538 34.5539 21.3581C34.3792 21.1782 34.2481 20.9631 34.1614 20.7121C34.0741 20.4611 34.0304 20.1834 34.0304 19.8776V14.4125H32.6803L32.6797 14.4112Z" fill="#E41E28"/>
<path d="M39.5586 15.4986C39.646 15.1498 39.7985 14.8316 40.0169 14.5455C40.2346 14.2593 40.5065 14.0167 40.8311 13.8173C41.1557 13.6184 41.5267 13.4639 41.9439 13.355C42.3611 13.2462 42.8122 13.1914 43.2978 13.1914C43.8976 13.1914 44.4158 13.2462 44.852 13.355C45.2881 13.4639 45.6466 13.6184 45.9276 13.8173C46.2085 14.0161 46.4158 14.256 46.5495 14.537C46.6831 14.818 46.7503 15.1328 46.7503 15.4816V20.2759C46.7503 20.6194 46.8565 20.9115 47.069 21.1514C47.2815 21.3913 47.5814 21.5901 47.9686 21.7485H44.9582C44.8709 21.7485 44.7868 21.7238 44.7046 21.6749C44.6231 21.626 44.5495 21.5621 44.4836 21.4826C44.4184 21.4037 44.3611 21.3176 44.3115 21.2251C44.2626 21.1325 44.2268 21.0425 44.2053 20.9552C44.0527 21.0973 43.908 21.2264 43.7718 21.3437C43.6355 21.461 43.4856 21.5601 43.322 21.6423C43.1583 21.7238 42.9758 21.7883 42.7737 21.8346C42.5716 21.8809 42.3291 21.9044 42.0456 21.9044C41.6583 21.9044 41.3109 21.8496 41.0025 21.7407C40.6942 21.6319 40.4328 21.4806 40.217 21.287C40.0012 21.0934 39.837 20.8645 39.7222 20.5999C39.6075 20.3352 39.5508 20.0477 39.5508 19.7367C39.5508 19.2569 39.6844 18.8449 39.9517 18.5013C40.219 18.1578 40.5723 17.8579 41.011 17.6017C41.4497 17.3455 41.9478 17.1219 42.5038 16.9308C43.0599 16.7398 43.627 16.5573 44.2053 16.3826V15.5644C44.2053 15.2971 44.1779 15.0696 44.1238 14.8812C44.069 14.6934 43.9928 14.5402 43.895 14.4229C43.7965 14.3055 43.6779 14.2214 43.539 14.1693C43.4002 14.1178 43.2457 14.0917 43.0769 14.0917C42.8748 14.0917 42.6948 14.1302 42.5371 14.2065C42.3787 14.2827 42.2424 14.3864 42.1284 14.5174C42.0143 14.6485 41.9211 14.7984 41.85 14.9672C41.7789 15.1361 41.7274 15.3134 41.6948 15.4992H39.5599L39.5586 15.4986ZM44.2053 17.4289C43.9602 17.5326 43.7118 17.6577 43.4608 17.8051C43.2098 17.9524 42.9849 18.1173 42.7861 18.2999C42.5873 18.4824 42.4237 18.6845 42.2952 18.9055C42.1668 19.1265 42.1029 19.3625 42.1029 19.6135C42.1029 19.8919 42.1753 20.1096 42.32 20.268C42.4647 20.4264 42.6596 20.5053 42.9048 20.5053C43.1121 20.5053 43.3167 20.4441 43.5182 20.3215C43.7196 20.1989 43.9491 20.0392 44.2053 19.843V17.4296V17.4289Z" fill="#E41E28"/>
<path d="M49.1383 23.7236C49.1924 23.751 49.2647 23.7862 49.3553 23.8299C49.4453 23.8736 49.5437 23.9147 49.65 23.9525C49.7563 23.9903 49.8697 24.0235 49.9896 24.0509C50.1096 24.0783 50.2295 24.092 50.3495 24.092C50.4479 24.092 50.5457 24.0346 50.6441 23.9205C50.7426 23.8058 50.8351 23.6721 50.9225 23.5196C51.0098 23.367 51.0874 23.2138 51.1559 23.0613C51.2237 22.9087 51.2745 22.7966 51.3071 22.7262L52.0353 21.1472L47.9531 13.3672H50.6363L53.2784 18.3818L55.618 13.3672H57.4094L52.7791 23.4544C52.6265 23.7817 52.4329 24.0789 52.1982 24.3462C51.9636 24.6135 51.7074 24.841 51.4297 25.0294C51.1513 25.2172 50.8612 25.3632 50.5581 25.4669C50.2556 25.5705 49.957 25.622 49.6624 25.622C49.4166 25.622 49.1904 25.5934 48.9831 25.536C48.7758 25.4786 48.5959 25.3926 48.4433 25.2785L49.1389 23.7243L49.1383 23.7236Z" fill="#E41E28"/>
<path d="M65.7475 16.3381H70.3531V20.6082C69.9985 20.7992 69.6439 20.974 69.2899 21.1317C68.9353 21.2901 68.5565 21.4264 68.153 21.5411C67.7495 21.6559 67.3088 21.7458 66.8316 21.811C66.3544 21.8762 65.8186 21.9095 65.2241 21.9095C64.2697 21.9095 63.3903 21.7758 62.5859 21.5085C61.7814 21.2412 61.0859 20.8651 60.4998 20.3794C59.9138 19.8944 59.4568 19.3076 59.1295 18.6205C58.8023 17.9334 58.6387 17.1726 58.6387 16.3381C58.6387 15.4548 58.8023 14.6477 59.1295 13.9169C59.4568 13.1861 59.9118 12.5589 60.4959 12.0354C61.0793 11.5119 61.7736 11.1058 62.578 10.8163C63.3825 10.5275 64.2619 10.3828 65.2162 10.3828C65.7782 10.3828 66.3192 10.4591 66.8401 10.6116C67.361 10.7642 67.8421 10.9663 68.284 11.2173C68.726 11.4683 69.1237 11.7558 69.4783 12.0804C69.8329 12.4051 70.1243 12.7389 70.3538 13.0824L69.2332 14.1053C68.9985 13.7728 68.7534 13.4645 68.4972 13.1809C68.241 12.8973 67.9679 12.6502 67.6791 12.4403C67.3896 12.2304 67.0806 12.0654 66.7508 11.9455C66.4209 11.8255 66.0676 11.7655 65.6915 11.7655C65.1191 11.7655 64.5859 11.8692 64.0924 12.0765C63.5989 12.2838 63.1706 12.5824 62.8082 12.9723C62.4457 13.3621 62.1621 13.8406 61.9574 14.4078C61.7527 14.975 61.6504 15.6184 61.6504 16.3388C61.6504 17.0592 61.7593 17.6941 61.9777 18.245C62.1954 18.7959 62.4933 19.2594 62.8694 19.6356C63.2456 20.0117 63.6863 20.2966 64.1908 20.4902C64.6954 20.6838 65.2364 20.781 65.8147 20.781C66.1582 20.781 66.4829 20.736 66.7879 20.646C67.093 20.5561 67.374 20.4185 67.6302 20.2327V17.2873H65.7488V16.3381H65.7475Z" fill="#E41E28"/>
<path d="M76.6573 21.9311C76.0628 21.9311 75.5041 21.8209 74.98 21.5999C74.4559 21.3789 74.0008 21.0816 73.6136 20.708C73.2264 20.3345 72.9194 19.901 72.6932 19.4075C72.4669 18.9139 72.3535 18.3918 72.3535 17.8409C72.3535 17.1811 72.4572 16.569 72.6645 16.0044C72.8718 15.4399 73.1664 14.9503 73.5478 14.5356C73.9291 14.121 74.3861 13.7983 74.9181 13.5662C75.45 13.3348 76.0426 13.2188 76.6971 13.2188C77.2805 13.2188 77.8151 13.3113 78.3007 13.4971C78.7857 13.6829 79.2016 13.9365 79.5484 14.2579C79.8946 14.58 80.1632 14.9587 80.3542 15.3949C80.5452 15.831 80.6403 16.2978 80.6403 16.7939H74.8405C74.862 17.2574 74.9317 17.6994 75.0491 18.1193C75.1664 18.5391 75.3229 18.9087 75.5198 19.2275C75.716 19.5463 75.9461 19.8006 76.2108 19.9883C76.4754 20.1761 76.7681 20.2706 77.0902 20.2706C77.3685 20.2706 77.6423 20.223 77.9122 20.1272C78.1821 20.032 78.4317 19.901 78.6606 19.7347C78.8894 19.5685 79.0888 19.3749 79.2577 19.1539C79.4265 18.9329 79.5491 18.6943 79.626 18.438L80.9187 18.6428C80.7877 19.0958 80.5791 19.5209 80.2929 19.9192C80.0067 20.3175 79.671 20.6663 79.287 20.9662C78.9024 21.2661 78.4839 21.5021 78.0315 21.6742C77.5784 21.8456 77.1208 21.9317 76.6573 21.9317V21.9311ZM77.729 15.9262C77.7075 15.6811 77.654 15.4555 77.5693 15.2514C77.4845 15.0467 77.377 14.8707 77.246 14.724C77.1149 14.5767 76.9624 14.4639 76.7877 14.3844C76.613 14.3055 76.4252 14.2657 76.2231 14.2657C76.0647 14.2657 75.9096 14.3055 75.757 14.3844C75.6045 14.4633 75.4663 14.5754 75.3437 14.7201C75.2212 14.8649 75.1175 15.0389 75.0328 15.2436C74.948 15.4483 74.892 15.6758 74.8652 15.9268H77.7284L77.729 15.9262Z" fill="#E41E28"/>
<path d="M87.9312 16.0305C87.9312 15.818 87.9077 15.6283 87.8614 15.462C87.8152 15.2958 87.7526 15.1569 87.6731 15.0448C87.5942 14.9333 87.5042 14.8486 87.4032 14.7912C87.3021 14.7338 87.1972 14.7052 87.0883 14.7052C86.9794 14.7052 86.8536 14.7273 86.7122 14.7704C86.57 14.814 86.4214 14.8753 86.2663 14.9542C86.1111 15.0331 85.9514 15.1302 85.7878 15.2443C85.6242 15.3584 85.469 15.4868 85.3217 15.6289V21.7485H82.7695V14.1321L84.5609 13.1992H85.3217V14.05C85.7141 13.7664 86.1339 13.5578 86.5818 13.4241C87.029 13.2905 87.4736 13.224 87.9149 13.224C88.2584 13.224 88.5844 13.2911 88.8927 13.4241C89.2011 13.5578 89.471 13.739 89.7024 13.9678C89.9338 14.1967 90.1183 14.4659 90.2545 14.7736C90.3908 15.082 90.4592 15.4105 90.4592 15.7593V21.7479H87.9312V16.0292V16.0305Z" fill="#E41E28"/>
<path d="M97.1022 18.2757L99.2991 21.7388H101.972L98.9705 17.0508C98.346 17.425 97.7209 17.8318 97.1016 18.2757H97.1022Z" fill="#112372"/>
<path d="M96.131 17.0374C96.7392 16.6821 97.3989 16.3294 98.1127 15.9819L95.0997 11.2965C95 11.1459 94.779 11.1459 94.6825 11.2965L93.7372 12.7503C93.6323 12.912 93.6323 13.1193 93.7346 13.281L96.131 17.0374Z" fill="#112372"/>
<path d="M90.748 21.7468H92.8484C98.7128 14.8645 107.86 13.1949 109.001 13.0117C97.6359 14.7537 92.3849 19.8915 90.748 21.7468Z" fill="#112372"/>
<path d="M10.4562 13.7695H9.08203V15.1444H10.4562V13.7695Z" fill="#2997FF"/>
<path d="M10.4562 15.7422H9.08203V17.1164H10.4562V15.7422Z" fill="#F34870"/>
<path d="M10.7784 6.97272V5C6.14798 5 2.39374 8.75442 2.39374 13.385C2.39374 14.4294 2.82594 15.7398 3.20534 16.7079L1 19.0294C5.96545 15.2913 3.94133 16.8265 10.7549 11.6196C10.7627 11.6255 10.7699 11.6307 10.7784 11.6366V8.65012L10.7549 8.62665L4.63103 15.2072C3.41395 11.0948 6.5 6.97337 10.7784 6.97337V6.97272Z" fill="#E41E28"/>
<path d="M12.4738 13.7695H11.0996V15.1444H12.4738V13.7695Z" fill="#A972FF"/>
<path d="M12.4738 15.7422H11.0996V17.1164H12.4738V15.7422Z" fill="#EB7500"/>
<path d="M16.2969 16.6445C15.0557 18.7411 12.9169 19.792 10.7774 19.792C8.63789 19.792 6.58574 18.7848 5.3289 16.7625L3.73633 17.9614C6.1053 23.1931 10.7774 29.7117 10.7774 29.7117C10.782 29.7058 15.5323 23.0764 17.8797 17.8252L16.2969 16.6452V16.6445Z" fill="#112372"/>
<path d="M18.4045 16.5697C18.765 15.6316 19.1626 14.389 19.1626 13.385C19.1626 8.75442 15.4084 5 10.778 5V6.97272C14.9925 6.97272 18.07 10.9781 16.967 15.0592L14.6444 12.619V10.0016H13.2878V11.1939L10.7773 8.65077V11.6372C17.6959 16.6825 15.6548 15.1772 20.5557 18.8318L18.4038 16.5703L18.4045 16.5697Z" fill="#E41E28"/>
</svg>
