<svg width="54" height="56" viewBox="0 0 54 56" fill="none" xmlns="http://www.w3.org/2000/svg">
<rect width="54" height="56" fill="white"/>
<path d="M26.0026 20.5508H23.0957V23.459H26.0026V20.5508Z" fill="#2997FF"/>
<path d="M26.0026 24.7188H23.0957V27.6256H26.0026V24.7188Z" fill="#F34870"/>
<path d="M26.6847 6.17275V2C16.8898 2 8.94826 9.94147 8.94826 19.7363C8.94826 21.9454 9.86252 24.7171 10.6651 26.7649L6 31.6754C16.5037 23.7684 12.222 27.0158 26.6351 16.002C26.6516 16.0144 26.6668 16.0255 26.6847 16.0379V9.72084L26.6351 9.67119L13.6809 23.5905C11.1064 14.892 17.6345 6.17413 26.6847 6.17413V6.17275Z" fill="#E41E28"/>
<path d="M30.2721 20.5508H27.3652V23.459H30.2721V20.5508Z" fill="#A972FF"/>
<path d="M30.2721 24.7188H27.3652V27.6256H30.2721V24.7188Z" fill="#EB7500"/>
<path d="M38.3612 26.6328C35.7356 31.0676 31.2112 33.2905 26.6854 33.2905C22.1596 33.2905 17.8185 31.16 15.1599 26.8824L11.791 29.4183C16.8022 40.4845 26.6854 54.2728 26.6854 54.2728C26.695 54.2604 36.7437 40.2377 41.7094 29.1301L38.3612 26.6342V26.6328Z" fill="#112372"/>
<path d="M42.8196 26.4725C43.5822 24.4882 44.4234 21.8599 44.4234 19.7363C44.4234 9.94147 36.4818 2 26.6869 2V6.17275C35.602 6.17275 42.1122 14.6451 39.779 23.2775L34.8657 18.116V12.5794H31.996V15.1016L26.6855 9.72222V16.0393C41.3207 26.7111 37.0031 23.5271 47.3702 31.2575L42.8182 26.4739L42.8196 26.4725Z" fill="#E41E28"/>
</svg>
